<mxfile host="app.diagrams.net" modified="2024-05-18T09:14:43.356Z" agent="Mozilla/5.0 (Windows NT 10.0; Win64; x64; rv:126.0) Gecko/20100101 Firefox/126.0" version="24.2.5" etag="pdDZq_qPUPNEaL4MOtst" type="github">
  <diagram name="Page-1" id="cyR0kIRiU2RW5eu4WRMd">
    <mxGraphModel>
      <root>
        <mxCell id="0" />
        <mxCell id="1" parent="0" />
      </root>
    </mxGraphModel>
  </diagram>
</mxfile>
